<svg xmlns="http://www.w3.org/2000/svg" version="1.1" xmlns:xlink="http://www.w3.org/1999/xlink" xmlns:svgjs="http://svgjs.com/svgjs" width="512" height="512" x="0" y="0" viewBox="0 0 64 64" style="enable-background:new 0 0 512 512" xml:space="preserve" class=""><g><g xmlns="http://www.w3.org/2000/svg" id="intelligent-cloud-server-network-human"><path d="m48.86 48.11a11.964 11.964 0 0 0 -4.86 9.63v3.26h-24v-7h-9v-7h-6l4-19a25 25 0 1 1 39.86 20.11z" fill="#ffbcab" data-original="#ffbcab" class=""></path><g fill="#ed1c24"><circle cx="34" cy="48" r="2" fill="#ed1c24" data-original="#ed1c24"></circle><circle cx="48" cy="38" r="2" fill="#ed1c24" data-original="#ed1c24"></circle><circle cx="20" cy="38" r="2" fill="#ed1c24" data-original="#ed1c24"></circle><circle cx="23" cy="13" r="2" fill="#ed1c24" data-original="#ed1c24"></circle><circle cx="45" cy="13" r="2" fill="#ed1c24" data-original="#ed1c24"></circle><circle cx="54" cy="29" r="2" fill="#ed1c24" data-original="#ed1c24"></circle><circle cx="51" cy="20" r="2" fill="#ed1c24" data-original="#ed1c24"></circle><circle cx="34" cy="9" r="2" fill="#ed1c24" data-original="#ed1c24"></circle><circle cx="17" cy="20" r="2" fill="#ed1c24" data-original="#ed1c24"></circle><circle cx="44" cy="45" r="2" fill="#ed1c24" data-original="#ed1c24"></circle><circle cx="24" cy="45" r="2" fill="#ed1c24" data-original="#ed1c24"></circle></g><path d="m45 24.1a5.014 5.014 0 0 0 -3.01.319c.01-.14.01-.28.01-.42a7.98 7.98 0 0 0 -3-6.241 7.986 7.986 0 0 0 -10 0 7.98 7.98 0 0 0 -3 6.242c0 .14 0 .28.01.42a5.014 5.014 0 0 0 -3.01-.32 5 5 0 0 0 1 9.9h20a5 5 0 0 0 1-9.9z" fill="#006df0" data-original="#006df0" class=""></path><circle cx="14" cy="29" fill="#ed1c24" r="2" data-original="#ed1c24"></circle><path d="m59.93 26.04a26.007 26.007 0 0 0 -43.74-16.99 25.765 25.765 0 0 0 -8.19 18.85l-3.98 18.89a1.007 1.007 0 0 0 .2.84 1.022 1.022 0 0 0 .78.37h5v6a1 1 0 0 0 1 1h8v6a1 1 0 0 0 1 1h24a1 1 0 0 0 1-1v-3.26a11.04 11.04 0 0 1 4.45-8.83h.01a25.971 25.971 0 0 0 10.47-22.87zm-11.66 21.27a13 13 0 0 0 -5.27 10.43v2.26h-22v-6a1 1 0 0 0 -1-1h-8v-6a1 1 0 0 0 -1-1h-4.77l3.75-17.79a1.492 1.492 0 0 0 .02-.21 24 24 0 1 1 38.27 19.31z" fill="#231f20" data-original="#231f20" class=""></path><path d="m54 26a3.01 3.01 0 0 0 -2.82 2h-1.27a6.029 6.029 0 0 0 -3.91-4.65v-1.35a1 1 0 0 1 1-1h1.18a3 3 0 1 0 0-2h-1.18a3.009 3.009 0 0 0 -3 3v1a6.2 6.2 0 0 0 -1.05.09 8.969 8.969 0 0 0 -2.95-5.79v-2.3a1 1 0 0 1 1-1h1.18a3 3 0 1 0 0-2h-1.18a3.009 3.009 0 0 0 -3 3v.94a8.91 8.91 0 0 0 -3-.88v-3.24a3 3 0 1 0 -2 0v3.24a8.91 8.91 0 0 0 -3 .88v-.94a3.009 3.009 0 0 0 -3-3h-1.18a3 3 0 1 0 0 2h1.18a1 1 0 0 1 1 1v2.3a8.969 8.969 0 0 0 -2.95 5.79 6.2 6.2 0 0 0 -1.05-.09v-1a3.009 3.009 0 0 0 -3-3h-1.18a3 3 0 1 0 0 2h1.18a1 1 0 0 1 1 1v1.35a6.029 6.029 0 0 0 -3.91 4.65h-1.27a3 3 0 1 0 0 2h1.27a6.007 6.007 0 0 0 5.91 5h1v1a1 1 0 0 1 -1 1h-1.18a3 3 0 1 0 0 2h1.18a3.009 3.009 0 0 0 3-3v-1h2v8a1 1 0 0 1 -1 1h-1.18a3 3 0 1 0 0 2h1.18a3.009 3.009 0 0 0 3-3v-8h2v10.18a3 3 0 1 0 2 0v-10.18h2v8a3.009 3.009 0 0 0 3 3h1.18a3 3 0 1 0 0-2h-1.18a1 1 0 0 1 -1-1v-8h2v1a3.009 3.009 0 0 0 3 3h1.18a3 3 0 1 0 0-2h-1.18a1 1 0 0 1 -1-1v-1h1a6.007 6.007 0 0 0 5.91-5h1.27a3 3 0 1 0 2.82-4zm-3-7a1 1 0 1 1 -1 1 1 1 0 0 1 1-1zm-6-7a1 1 0 1 1 -1 1 1 1 0 0 1 1-1zm-22 2a1 1 0 1 1 1-1 1 1 0 0 1 -1 1zm-6 7a1 1 0 1 1 1-1 1 1 0 0 1 -1 1zm-3 9a1 1 0 1 1 1-1 1 1 0 0 1 -1 1zm6 9a1 1 0 1 1 1-1 1 1 0 0 1 -1 1zm4 7a1 1 0 1 1 1-1 1 1 0 0 1 -1 1zm20-2a1 1 0 1 1 -1 1 1 1 0 0 1 1-1zm4-7a1 1 0 1 1 -1 1 1 1 0 0 1 1-1zm-14-29a1 1 0 1 1 -1 1 1 1 0 0 1 1-1zm0 41a1 1 0 1 1 1-1 1 1 0 0 1 -1 1zm10-16h-20a4 4 0 0 1 0-8 3.879 3.879 0 0 1 1.61.34 1.012 1.012 0 0 0 .98-.1 1.026 1.026 0 0 0 .42-.89c-.01-.12-.01-.23-.01-.35a7 7 0 0 1 14 0c0 .12 0 .23-.01.35a1.026 1.026 0 0 0 .42.89 1.012 1.012 0 0 0 .98.1 3.879 3.879 0 0 1 1.61-.34 4 4 0 0 1 0 8zm10-3a1 1 0 1 1 1-1 1 1 0 0 1 -1 1z" fill="#231f20" data-original="#231f20" class=""></path></g></g></svg>