<svg xmlns="http://www.w3.org/2000/svg" version="1.1" xmlns:xlink="http://www.w3.org/1999/xlink" xmlns:svgjs="http://svgjs.com/svgjs" width="512" height="512" x="0" y="0" viewBox="0 0 512 512" style="enable-background:new 0 0 512 512" xml:space="preserve" class=""><g><g xmlns="http://www.w3.org/2000/svg"><g><path d="m41.84 366.434c0-3.065 2.679-5.461 5.721-5.087 22.945 2.819 40.712 22.376 40.712 46.083v9.021h-10.077c-20.079 0-36.356-16.277-36.356-36.356z" fill="#68ca44" data-original="#68ca44"></path><path d="m134.704 366.434c0-3.065-2.679-5.461-5.721-5.087-22.945 2.819-40.712 22.376-40.712 46.083v9.021h10.076c20.079 0 36.356-16.277 36.356-36.356v-13.661z" fill="#4fc123" data-original="#4fc123"></path><path d="m209.568 366.434c0-3.065 2.679-5.461 5.721-5.087 22.944 2.82 40.711 22.377 40.711 46.084v9.021h-10.076c-20.079 0-36.356-16.277-36.356-36.356z" fill="#68ca44" data-original="#68ca44"></path><path d="m302.432 366.434c0-3.065-2.679-5.461-5.721-5.087-22.944 2.82-40.711 22.377-40.711 46.084v9.021h10.076c20.079 0 36.356-16.277 36.356-36.356z" fill="#4fc123" data-original="#4fc123"></path><path d="m377.296 366.434c0-3.065 2.679-5.461 5.721-5.087 22.945 2.819 40.712 22.376 40.712 46.083v9.021h-10.076c-20.079 0-36.356-16.277-36.356-36.356v-13.661z" fill="#68ca44" data-original="#68ca44"></path><path d="m470.16 366.434c0-3.065-2.679-5.461-5.721-5.087-22.945 2.819-40.712 22.376-40.712 46.083v9.021h10.076c20.079 0 36.356-16.277 36.356-36.356v-13.661z" fill="#4fc123" data-original="#4fc123"></path><path d="m474.306 469.657c-8.223 0-16.067-3.989-20.49-10.921-6.334-9.926-17.438-16.509-30.087-16.509s-23.756 6.582-30.089 16.509c-4.423 6.932-12.267 10.921-20.49 10.921h-66.572c-8.223 0-16.067-3.989-20.49-10.921-6.334-9.926-17.439-16.509-30.088-16.509s-23.755 6.582-30.088 16.509c-4.423 6.932-12.267 10.921-20.49 10.921h-66.572c-8.223 0-16.067-3.989-20.49-10.921-6.334-9.926-17.441-16.509-30.089-16.509-12.649 0-23.753 6.582-30.087 16.509-4.423 6.932-12.267 10.921-20.49 10.921h-16.747c-5.181 0-9.381 4.2-9.381 9.381v16.081c0 5.181 4.2 9.381 9.381 9.381h470.106c5.181 0 9.381-4.2 9.381-9.381v-16.081c0-5.181-4.2-9.381-9.381-9.381z" fill="#e8ad8c" data-original="#e8ad8c"></path><path d="m72.134 261.807h102.476v32.122h-102.476z" fill="#f2fbff" data-original="#f2fbff"></path><path d="m168.918 156.9h32.122v123.408h-32.122z" fill="#f2fbff" data-original="#f2fbff"></path><path d="m78.383 253.63v48.476c0 2.456-1.991 4.447-4.447 4.447h-31.651c-2.456 0-4.447-1.991-4.447-4.447v-48.476c0-2.456 1.991-4.447 4.447-4.447h31.651c2.456 0 4.447 1.991 4.447 4.447z" fill="#678d98" data-original="#678d98"></path><ellipse cx="184.979" cy="277.868" fill="#fe9738" rx="25.948" ry="25.948" transform="matrix(.973 -.23 .23 .973 -58.893 49.933)" data-original="#fe9738"></ellipse><path d="m259.435 144.347h41.928v73.117h-41.928z" fill="#678d98" transform="matrix(.5 -.866 .866 .5 -16.469 333.286)" data-original="#678d98"></path><path d="m367.019 185.179-39.609 68.605c-1.242 2.152-3.994 2.889-6.146 1.647l-27.363-15.798c-2.152-1.242-2.889-3.994-1.647-6.146l39.609-68.605c1.242-2.152 3.994-2.889 6.146-1.647l27.363 15.798c2.152 1.243 2.89 3.994 1.647 6.146z" fill="#ffe177" data-original="#ffe177" class=""></path><path d="m119.728 143.989 126.469 73.018c2.4 1.386 5.468.562 6.854-1.838l49.104-85.05c1.386-2.4.563-5.47-1.837-6.855l-126.47-73.017c-2.4-1.386-5.47-.563-6.855 1.837l-49.103 85.048c-1.386 2.4-.562 5.471 1.838 6.857z" fill="#ffe177" data-original="#ffe177" class=""></path><path d="m300.318 123.264-20.57-11.876c2.383 1.376 3.199 4.422 1.823 6.805l-49.14 85.113c-1.376 2.383-4.422 3.199-6.805 1.823l20.572 11.878c2.4 1.386 5.468.562 6.854-1.838l49.104-85.05c1.385-2.4.562-5.469-1.838-6.855z" fill="#fec165" data-original="#fec165"></path><path d="m127.515 92.638 91.14 52.62c1.019.588 2.211.8 3.37.598l116.392-20.26c1.465-.255 2.742-1.147 3.486-2.435l5.877-10.179c1.386-2.4.563-5.47-1.837-6.855l-169.662-97.954c-2.4-1.386-5.47-.563-6.855 1.837l-43.747 75.773c-1.386 2.4-.564 5.469 1.836 6.855z" fill="#678d98" data-original="#678d98"></path><path d="m345.942 106.127-25.34-14.63c2.4 1.386 3.223 4.455 1.837 6.855l-5.877 10.179c-.744 1.288-2.02 2.18-3.485 2.435l-116.392 20.26c-1.159.202-2.351-.01-3.37-.598l25.34 14.63c1.019.588 2.211.8 3.37.598l116.392-20.26c1.465-.255 2.742-1.147 3.486-2.435l5.877-10.179c1.385-2.4.563-5.469-1.838-6.855z" fill="#537983" data-original="#537983"></path></g><g><path d="m491.051 462.158h-16.747c-5.805 0-11.233-2.856-14.167-7.455-6.61-10.36-17.087-17.245-28.909-19.31v-11.44h2.575c24.182 0 43.856-19.674 43.856-43.856v-13.661c0-3.617-1.554-7.066-4.264-9.463-2.702-2.39-6.302-3.511-9.871-3.068-17.101 2.101-31.525 12.132-39.797 26.124-8.271-13.992-22.696-24.023-39.796-26.124-3.572-.441-7.171.679-9.871 3.068-2.71 2.397-4.264 5.846-4.264 9.463v13.661c0 24.182 19.674 43.856 43.856 43.856h2.578v11.44c-11.824 2.065-22.302 8.95-28.912 19.31-2.934 4.599-8.363 7.455-14.167 7.455h-66.571c-5.805 0-11.233-2.856-14.167-7.455-6.61-10.36-17.088-17.245-28.91-19.31v-11.44h2.576c24.182 0 43.856-19.674 43.856-43.856v-13.661c0-3.617-1.554-7.066-4.264-9.463-2.701-2.39-6.303-3.511-9.871-3.068-17.101 2.101-31.525 12.131-39.797 26.124-8.271-13.992-22.695-24.023-39.796-26.124-3.574-.441-7.171.679-9.872 3.068-2.71 2.397-4.264 5.846-4.264 9.463v13.661c0 24.182 19.674 43.856 43.856 43.856h2.576v11.44c-11.823 2.065-22.3 8.95-28.91 19.31-2.934 4.599-8.362 7.455-14.167 7.455h-66.572c-5.805 0-11.233-2.856-14.167-7.455-6.61-10.36-17.088-17.246-28.912-19.31v-11.44h2.578c24.182 0 43.856-19.674 43.856-43.856v-13.661c0-3.617-1.554-7.066-4.264-9.463-2.701-2.39-6.303-3.511-9.871-3.068-17.101 2.101-31.525 12.132-39.797 26.124-8.271-13.992-22.696-24.023-39.796-26.124-3.57-.441-7.171.679-9.872 3.068-2.71 2.397-4.264 5.846-4.264 9.463v13.661c0 24.182 19.674 43.856 43.856 43.856h2.575v11.44c-11.822 2.065-22.299 8.951-28.909 19.31-2.934 4.599-8.362 7.455-14.167 7.455h-16.751c-9.309 0-16.881 7.573-16.881 16.881v16.08c0 9.309 7.573 16.881 16.881 16.881h163.082c4.142 0 7.5-3.358 7.5-7.5s-3.358-7.5-7.5-7.5h-163.082c-1.037 0-1.881-.844-1.881-1.881v-16.08c0-1.037.844-1.881 1.881-1.881h16.747c11.041 0 21.064-5.378 26.812-14.387 5.211-8.167 14.094-13.042 23.763-13.042 9.671 0 18.556 4.875 23.766 13.042 5.748 9.008 15.771 14.387 26.813 14.387h66.572c11.041 0 21.064-5.378 26.812-14.387 5.211-8.167 14.095-13.042 23.765-13.042s18.554 4.875 23.765 13.042c5.748 9.008 15.771 14.387 26.813 14.387h66.571c11.041 0 21.065-5.378 26.813-14.387 5.21-8.167 14.095-13.042 23.766-13.042 9.669 0 18.553 4.875 23.763 13.042 5.748 9.008 15.771 14.387 26.812 14.387h16.747c1.037 0 1.881.844 1.881 1.881v16.08c0 1.038-.844 1.881-1.881 1.881h-271.889c-4.142 0-7.5 3.358-7.5 7.5s3.358 7.5 7.5 7.5h271.891c9.309 0 16.881-7.573 16.881-16.881v-16.08c0-9.309-7.573-16.881-16.881-16.881zm-363.846-92.938v10.877c0 15.911-12.945 28.856-28.856 28.856h-2.576v-1.521c0-18.721 13.332-34.691 31.432-38.212zm-77.863 10.877v-10.877c18.1 3.521 31.432 19.491 31.432 38.212v1.521h-2.576c-15.912 0-28.856-12.945-28.856-28.856zm245.59-10.877v10.877c0 15.911-12.945 28.856-28.856 28.856h-2.576v-1.521c0-18.721 13.331-34.691 31.432-38.212zm-77.864 10.877v-10.877c18.1 3.521 31.432 19.491 31.432 38.212v1.521h-2.576c-15.911 0-28.856-12.945-28.856-28.856zm245.59-10.877v10.877c0 15.911-12.945 28.856-28.856 28.856h-2.576v-1.521c.001-18.721 13.332-34.691 31.432-38.212zm-77.863 10.877v-10.877c18.1 3.521 31.432 19.491 31.432 38.212v1.521h-2.576c-15.911 0-28.856-12.945-28.856-28.856z" fill="#000000" data-original="#000000" class=""></path><path d="m42.287 314.055h31.651c6.587 0 11.947-5.359 11.947-11.947v-.676h75.38c6.062 6.102 14.454 9.886 23.715 9.886 18.443 0 33.448-15.004 33.448-33.447 0-9.261-3.785-17.653-9.887-23.715v-50.226l33.921 19.585c5.994 3.448 13.646 1.388 17.084-4.592l7.443-12.893 24.344 14.057-5.574 9.654c-3.307 5.729-1.337 13.082 4.392 16.39l27.364 15.799c5.755 3.321 13.081 1.339 16.39-4.393l39.609-68.604c3.317-5.743 1.353-13.075-4.391-16.391l-27.364-15.799c-5.729-3.308-13.082-1.336-16.39 4.392l-5.573 9.653-24.347-14.058 10.293-17.831 33.96-5.911c3.666-.638 6.835-2.852 8.696-6.074l5.876-10.179c3.459-5.991 1.411-13.64-4.582-17.1l-97.549-56.32c-3.588-2.072-8.175-.843-10.245 2.745-2.071 3.587-.842 8.174 2.745 10.245l95.401 55.08-4.055 7.024-114.361 19.907-78.277-45.193c-.013-.008-.025-.017-.039-.025-.013-.008-.027-.013-.041-.021l-9.855-5.69 41.266-71.474 39.613 22.87c3.585 2.071 8.174.842 10.245-2.745s.842-8.174-2.745-10.245l-41.763-24.111c-2.896-1.672-6.269-2.116-9.499-1.25-3.23.865-5.929 2.936-7.601 5.832l-43.747 75.772c-1.672 2.895-2.116 6.269-1.25 9.499.865 3.23 2.937 5.929 5.832 7.601l5.549 3.204-17.914 31.033c-3.459 5.971-1.409 13.646 4.58 17.115l45.44 26.235v77.429c-.053.053-.107.106-.16.16h-75.378v-.68c0-6.588-5.359-11.947-11.947-11.947h-31.65c-6.588 0-11.947 5.359-11.947 11.947v48.476c0 6.588 5.359 11.947 11.947 11.947zm142.692-17.737c-10.172 0-18.448-8.275-18.448-18.448 0-10.172 8.275-18.448 18.448-18.448 10.172 0 18.448 8.276 18.448 18.448 0 10.173-8.276 18.448-18.448 18.448zm151.879-125.084 22.165 12.797-36.608 63.406-22.165-12.797c4.214-7.299 32.633-56.523 36.608-63.406zm-24.563 12.544-13.463 23.318-24.345-14.057 13.461-23.318zm-169.989-73.938 72.598 41.914c1.912 1.104 4.079 1.678 6.267 1.678.714 0 1.431-.061 2.141-.185l63.176-10.997c-1.296 2.245-25.203 43.706-28.711 49.733-.01.017-.022.032-.031.049s-.017.035-.026.052l-9.923 17.189-122.17-70.537zm34.115 75.544 17.12 9.884v50.269c-5.609-1.487-11.507-1.488-17.12-.001zm-23.775 83.928c-.724 2.733-1.114 5.601-1.114 8.559 0 2.959.391 5.827 1.115 8.561h-66.763v-17.12zm-107.306-12.627h25.545v42.37h-25.545z" fill="#000000" data-original="#000000" class=""></path></g></g></g></svg>