<svg xmlns="http://www.w3.org/2000/svg" version="1.1" xmlns:xlink="http://www.w3.org/1999/xlink" xmlns:svgjs="http://svgjs.com/svgjs" width="512" height="512" x="0" y="0" viewBox="0 0 512 512" style="enable-background:new 0 0 512 512" xml:space="preserve" class=""><g><g xmlns="http://www.w3.org/2000/svg"><g><path d="m201.588 367.95c33.599 32.971 75.645 5.666 80.354-39.323.355-3.392-1.495-6.63-4.592-8.057-31.247-14.406-88.93-7.477-75.867 47.195.017.069.054.135.105.185z" fill="#68ca44" data-original="#68ca44"></path><path d="m130.582 299.15c-.043.18-.138.35-.271.48-48.4 47.37-108.902 8.138-115.793-56.597-.525-4.939 2.099-9.753 6.605-11.829 20.934-9.655 50.088-12.662 73.425-5.214 1.493.476 2.273 2.114 1.685 3.566l-4.676 11.536c-.72 1.776.757 3.664 2.654 3.393l23.944-3.421c.87-.124 1.755.176 2.346.826 11.236 12.38 16.326 30.995 10.081 57.26z" fill="#68ca44" data-original="#68ca44"></path><path d="m169.159 444.049c-32.902 0-60.136 24.19-64.93 55.753-.375 2.467 1.514 4.698 4.01 4.698h121.841c2.495 0 4.384-2.231 4.01-4.698-4.795-31.563-32.029-55.753-64.931-55.753z" fill="#e8ad8c" data-original="#e8ad8c"></path><path d="m234.09 499.802c-4.794-31.562-32.029-55.752-64.93-55.752-4.63 0-9.141.495-13.5 1.406 26.616 5.563 47.31 27.225 51.43 54.346.375 2.467-1.514 4.698-4.01 4.698h27c2.495 0 4.384-2.231 4.01-4.698z" fill="#e19974" data-original="#e19974"></path><path d="m345.552 7.535c-79.109 1.692-143.499 65.853-145.465 144.955-.338 13.593 1.161 26.791 4.261 39.365.751 3.044-.14 6.256-2.383 8.447l-38.172 37.276c-3.212 3.136-.68 8.566 3.787 8.121l53.181-5.29c3.102-.309 6.128 1.051 7.97 3.565 27.939 38.137 73.579 62.532 124.716 60.963 78.681-2.414 142.302-66.594 144.063-145.292 1.894-84.65-67.325-153.921-151.958-152.11z" fill="#fd8087" data-original="#fd8087" class=""></path><path d="m345.552 7.535c-3.271.07-6.514.257-9.732.537 77.049 6.716 137.461 72.417 135.69 151.573-1.698 75.883-60.912 138.258-135.682 144.789 5.787.502 11.663.686 17.618.503 78.681-2.415 142.302-66.594 144.063-145.292 1.895-84.65-67.324-153.92-151.957-152.11z" fill="#fe646f" data-original="#fe646f" class=""></path><ellipse cx="348.794" cy="156.254" fill="#f2fbff" rx="112.9" ry="112.9" transform="matrix(.707 -.707 .707 .707 -8.329 292.4)" data-original="#f2fbff" class=""></ellipse><g><ellipse cx="380.53" cy="124.518" fill="#678d98" rx="22.512" ry="22.512" transform="matrix(.707 -.707 .707 .707 23.407 305.546)" data-original="#678d98"></ellipse><ellipse cx="343.141" cy="161.907" fill="#ae6c6c" rx="37.353" ry="36.628" transform="matrix(.707 -.707 .707 .707 -13.982 290.059)" data-original="#ae6c6c"></ellipse></g></g><g><path d="m474.313 63.287c-2.469-3.325-7.168-4.022-10.492-1.551-3.326 2.47-4.021 7.167-1.551 10.492 18.857 25.396 28.45 55.567 27.742 87.249-.809 36.137-15.374 70.279-41.015 96.139-25.641 25.862-59.656 40.716-95.781 41.824-46.552 1.413-90.829-20.215-118.435-57.899-3.397-4.637-9.058-7.167-14.763-6.596l-45.369 4.513 32.555-31.791c4.113-4.017 5.809-9.997 4.425-15.607-2.998-12.162-4.359-24.739-4.045-37.384.903-36.319 15.677-70.548 41.6-96.38s60.203-40.485 96.527-41.263c34.33-.712 67.681 11.038 93.934 33.146 3.169 2.667 7.899 2.263 10.568-.906 2.668-3.168 2.262-7.899-.906-10.568-29.045-24.458-65.951-37.51-103.917-36.668-40.198.859-78.125 17.065-106.794 45.634s-45.009 66.437-46.008 106.632c-.348 13.978 1.159 27.89 4.477 41.347.118.48-.009.961-.341 1.285l-38.171 37.276c-3.775 3.686-4.774 9.156-2.544 13.938 2.229 4.781 7.065 7.54 12.313 7.012l53.182-5.29c.456-.039.899.154 1.178.535 30.517 41.655 79.51 65.628 130.996 64.026 39.979-1.227 77.615-17.653 105.972-46.255 28.355-28.6 44.464-66.374 45.358-106.365.784-35.047-9.831-68.425-30.695-96.525z" fill="#000000" data-original="#000000" class=""></path><path d="m348.794 35.856c-66.349 0-120.4 53.996-120.4 120.399 0 66.389 54.011 120.4 120.4 120.4 66.324 0 120.4-53.974 120.4-120.4 0-66.389-54.011-120.399-120.4-120.399zm-105.4 120.399c0-26.366 9.732-50.5 25.791-69.003l43.111 43.111c-.119.116-.242.225-.36.343-2.921 2.921-5.384 6.174-7.377 9.663l-7.534-2.027c-4.815-1.3-9.987.083-13.479 3.597l-17.479 17.479c-2.929 2.93-2.929 7.678 0 10.607 2.931 2.929 7.678 2.928 10.607 0l17.041-17.041 5.681 1.528c-2.617 14.314 1.694 28.778 12.029 39.111 10.336 10.337 24.796 14.648 39.119 12.029l1.525 5.684-17.042 17.041c-2.929 2.93-2.929 7.678 0 10.607 2.931 2.929 7.678 2.928 10.607 0l17.478-17.478c3.519-3.516 4.897-8.683 3.603-13.468l-2.026-7.552c3.486-1.992 6.737-4.454 9.656-7.373.118-.118.226-.241.342-.36l43.111 43.111c-18.503 16.06-42.638 25.791-69.004 25.791-58.118 0-105.4-47.282-105.4-105.4zm147.752-42.352c5.861 5.861 5.837 15.385.001 21.234-2.492 2.491-5.786 3.997-9.239 4.32-1.885-3.32-4.229-6.443-7.051-9.266-2.826-2.826-5.954-5.172-9.278-7.058.306-3.456 1.804-6.699 4.342-9.238 5.837-5.851 15.392-5.825 21.225.008zm-37.991 75.5c-10.407 4.004-22.65 2.085-31.124-6.387-11.563-11.563-10.951-30.241.513-41.705.118-.118.24-.227.36-.342l41.176 41.176c-.115.119-.225.242-.342.36-3.067 3.066-6.671 5.393-10.583 6.898zm11.095-48.605c7.445 7.446 9.91 18.049 7.447 27.75l-35.193-35.193c9.917-2.518 20.446.142 27.746 7.443zm64.155 84.458-40.004-40.004.862.232c1.19.319 2.402.476 3.605.476 3.659 0 7.236-1.441 9.863-4.084l17.48-17.471c2.93-2.928 2.931-7.677.003-10.606-2.929-2.931-7.678-2.932-10.606-.003l-17.051 17.041-5.697-1.532c.942-5.132.985-10.381.128-15.498 5.527-1.223 10.686-3.983 14.771-8.068 3.288-3.295 5.733-7.279 7.197-11.622 2.711-.138 9.844 2.857 15.878-3.122l6.689-6.69c2.929-2.929 2.929-7.678-.001-10.606s-7.677-2.929-10.606.001l-5.968 5.969-4.907-.52c-2.232-12.276-11.764-21.884-24.135-24.134l-.521-4.91 5.969-5.968c2.929-2.93 2.929-7.678 0-10.607-2.93-2.928-7.678-2.928-10.607 0l-6.689 6.689c-2.782 2.783-4.127 6.613-3.694 10.465l.573 5.406c-4.355 1.464-8.342 3.914-11.629 7.209-4.081 4.082-6.839 9.24-8.061 14.765-5.118-.858-10.369-.815-15.501.127l-1.533-5.712 17.041-17.031c2.93-2.928 2.931-7.677.003-10.606-2.929-2.931-7.678-2.932-10.606-.003l-17.498 17.488c-3.501 3.521-4.873 8.681-3.585 13.45l.236.878-40.008-40.008c18.502-16.058 42.636-25.789 69.001-25.789 58.118 0 105.4 47.282 105.4 105.399-.003 26.363-9.734 50.497-25.792 68.999z" fill="#000000" data-original="#000000" class=""></path><path d="m280.49 313.76c-20.819-9.6-53.526-11.129-73.132 4.94-9.031 7.403-18.467 21.215-14.243 45.599l-7.057 4.445c-3.468 2.185-6.6 4.74-9.399 7.573v-21.717c0-21.649-10.895-41.526-29.146-53.173l-8.579-5.473c3.443-17.958 3.309-41.268-12.882-59.105-2.261-2.49-5.61-3.692-8.96-3.209l-15.31 2.187 1.399-3.452c1.061-2.616.982-5.582-.216-8.139-1.201-2.563-3.438-4.527-6.138-5.39-23.99-7.659-54.939-5.479-78.844 5.547-7.406 3.412-11.796 11.223-10.924 19.435 3.938 36.996 25.024 68.263 53.719 79.655 3.851 1.527 8.209-.354 9.738-4.203 1.528-3.85-.354-8.21-4.203-9.738-23.579-9.361-40.982-35.779-44.338-67.301-.189-1.78.75-3.518 2.288-4.226 18.74-8.645 43.365-10.996 62.991-6.276l-2.65 6.537c-1.338 3.303-.805 7.097 1.391 9.903 2.195 2.806 5.747 4.233 9.275 3.73l21.322-3.046c7.719 9.665 10.575 22.515 8.568 38.303l-49.706-31.709c-3.493-2.227-8.13-1.202-10.356 2.29-2.228 3.491-1.203 8.129 2.289 10.356l50.656 32.315c-7.032 5.476-14.395 9.214-21.98 11.134-4.016 1.016-6.447 5.095-5.431 9.11 1.017 4.02 5.099 6.446 9.111 5.431 11.143-2.819 21.749-8.597 31.592-17.196l8.111 5.175c13.91 8.876 22.214 24.026 22.214 40.527v82.35c-14.896 1.534-29.029 7.594-40.419 17.474-13.149 11.405-21.824 27.121-24.426 44.252-1.063 7.003 4.34 13.325 11.424 13.325h121.841c7.1 0 12.486-6.338 11.424-13.324-2.603-17.131-11.277-32.847-24.425-44.252-11.39-9.88-25.523-15.94-40.419-17.474v-24.012c.005-12.867 6.506-24.643 17.394-31.501l6.652-4.19c14.035 11.615 31.396 16.157 48.508 10.001 21.546-7.75 37.321-30.454 40.186-57.838.691-6.585-2.89-12.874-8.91-15.65zm-54.552 183.24h-113.557c2.703-12.073 9.244-23.054 18.687-31.244 21.852-18.955 54.371-18.92 76.182 0 9.444 8.19 15.985 19.17 18.688 31.244zm18.2-123.868c-9.905 3.565-20.255 1.959-29.846-4.444l32.748-20.63c3.505-2.208 4.556-6.839 2.348-10.344-2.208-3.504-6.839-4.557-10.343-2.348l-31.879 20.083c-.617-10.906 2.622-19.343 9.703-25.148 14.158-11.605 40.789-10.552 57.341-2.92.184.085.294.271.273.466-2.271 21.696-14.182 39.472-30.345 45.285z" fill="#000000" data-original="#000000" class=""></path></g></g></g></svg>