<svg xmlns="http://www.w3.org/2000/svg" version="1.1" xmlns:xlink="http://www.w3.org/1999/xlink" xmlns:svgjs="http://svgjs.com/svgjs" width="512" height="512" x="0" y="0" viewBox="0 0 512 512" style="enable-background:new 0 0 512 512" xml:space="preserve" class=""><g><g xmlns="http://www.w3.org/2000/svg"><g><path d="m468 24h-424a20 20 0 0 0 -20 20v232a20 20 0 0 0 20 20h52l72 74v-74h300a20 20 0 0 0 20-20v-232a20 20 0 0 0 -20-20z" fill="#57e6b6" data-original="#57e6b6" class=""></path><path d="m72 200a39.859 39.859 0 0 0 -15.7 3.2 39.942 39.942 0 0 0 39.7 44.8 39.859 39.859 0 0 0 15.7-3.2 39.942 39.942 0 0 0 -39.7-44.8z" fill="#f8fefc" data-original="#f8fefc" class=""></path><path d="m128 248a39.859 39.859 0 0 1 -15.7-3.2 39.942 39.942 0 0 1 39.7-44.8 39.859 39.859 0 0 1 15.7 3.2 39.942 39.942 0 0 1 -39.7 44.8z" fill="#f8fefc" data-original="#f8fefc" class=""></path><circle cx="256" cy="104" fill="#f8fefc" r="48" data-original="#f8fefc" class=""></circle><g><path d="m463.665 488v-162.667a20 20 0 0 0 -12.308-18.461l-83.692-34.872h-64l-83.692 34.872a20 20 0 0 0 -12.308 18.461v162.667z" fill="#fac850" data-original="#fac850" class=""></path><path d="m375.665 275.963-40 60.037-40-60.037 16-27.963h48z" fill="#ffd4cf" data-original="#ffd4cf" class=""></path><rect fill="#fa7d29" height="160" rx="10" transform="matrix(0 -1 1 0 -56 728)" width="112" x="280" y="312" data-original="#fa7d29" class=""></rect><g fill="#ffd4cf"><path d="m208.335 440 24-24v-8a40 40 0 0 1 40-40v80l-40 40h-25.592a19.417 19.417 0 0 1 -19.13-22.738l1.592-9.168a19.417 19.417 0 0 1 19.13-16.094z" fill="#ffd4cf" data-original="#ffd4cf" class=""></path><path d="m464 440-24-24v-8a40 40 0 0 0 -40-40v80l40 40h25.592a19.417 19.417 0 0 0 19.13-22.738l-1.592-9.168a19.417 19.417 0 0 0 -19.13-16.094z" fill="#ffd4cf" data-original="#ffd4cf" class=""></path></g></g><path d="m392 144h-112l32-56h48z" fill="#fac850" data-original="#fac850" class=""></path><ellipse cx="336" cy="160" fill="#fa7d29" rx="88" ry="32" data-original="#fa7d29" class=""></ellipse><g><path d="m359.665 248h-48l-7.872 13.758 12.238 8.159a36 36 0 0 0 39.938 0l11.753-7.835z" fill="#fbb8b0" data-original="#fbb8b0"></path><path d="m384 168-16.377-5.459a100 100 0 0 0 -63.246 0l-16.377 5.459v53.3a20 20 0 0 0 8.906 16.641l28 18.667a20 20 0 0 0 22.188 0l28-18.667a20 20 0 0 0 8.906-16.641z" fill="#ffd4cf" data-original="#ffd4cf" class=""></path></g><g fill="#f8fefc"><path d="m72 56a39.859 39.859 0 0 0 -15.7 3.2 39.942 39.942 0 0 0 39.7 44.8 39.859 39.859 0 0 0 15.7-3.2 39.942 39.942 0 0 0 -39.7-44.8z" fill="#f8fefc" data-original="#f8fefc" class=""></path><path d="m128 104a39.859 39.859 0 0 1 -15.7-3.2 39.942 39.942 0 0 1 39.7-44.8 39.859 39.859 0 0 1 15.7 3.2 39.942 39.942 0 0 1 -39.7 44.8z" fill="#f8fefc" data-original="#f8fefc" class=""></path><path d="m72 128a39.859 39.859 0 0 0 -15.7 3.2 39.942 39.942 0 0 0 39.7 44.8 39.859 39.859 0 0 0 15.7-3.2 39.942 39.942 0 0 0 -39.7-44.8z" fill="#f8fefc" data-original="#f8fefc" class=""></path><path d="m128 176a39.859 39.859 0 0 1 -15.7-3.2 39.942 39.942 0 0 1 39.7-44.8 39.859 39.859 0 0 1 15.7 3.2 39.942 39.942 0 0 1 -39.7 44.8z" fill="#f8fefc" data-original="#f8fefc" class=""></path></g></g><g><path d="m192 288h-24a8 8 0 0 0 -8 8v54.306l-58.266-59.885a8 8 0 0 0 -5.734-2.421h-52a12.013 12.013 0 0 1 -12-12v-232a12.013 12.013 0 0 1 12-12h28v-16h-28a28.032 28.032 0 0 0 -28 28v232a28.032 28.032 0 0 0 28 28h48.622l69.644 71.579a8 8 0 0 0 13.734-5.579v-66h16z" fill="#000000" data-original="#000000" class=""></path><path d="m496 276v-232a28.032 28.032 0 0 0 -28-28h-380v16h380a12.013 12.013 0 0 1 12 12v232a12.013 12.013 0 0 1 -12 12h-41.134l-46.083-19.2-10.371-18.125 9.12-6.08a27.944 27.944 0 0 0 12.468-23.295v-28.278c25.86-7.236 40-18.848 40-33.022 0-8.6-5.385-20.817-31.041-30.146-3.028-1.1-6.225-2.117-9.568-3.043l-24.445-42.78a8 8 0 0 0 -6.946-4.031h-48a8 8 0 0 0 -6.946 4.031l-24.445 42.78c-3.343.926-6.54 1.942-9.568 3.043-25.656 9.329-31.041 21.546-31.041 30.146 0 14.174 14.14 25.786 40 33.022v28.278a27.944 27.944 0 0 0 12.468 23.3l8.635 5.756-10.556 18.444-73.647 30.687a27.926 27.926 0 0 0 -17.231 25.846v82.667h16v-82.667a11.969 11.969 0 0 1 7.384-11.077l69.283-28.867 28.386 42.611h-54.722a18.021 18.021 0 0 0 -18 18v20.638a48.025 48.025 0 0 0 -23.665 41.362v4.687l-19.535 19.539a27.356 27.356 0 0 0 -23.471 22.5l-1.593 9.169a27.417 27.417 0 0 0 27.007 32.105h258.849a27.418 27.418 0 0 0 27.008-32.107l-1.593-9.167a27.356 27.356 0 0 0 -23.471-22.5l-19.536-19.539v-4.687a48.029 48.029 0 0 0 -24-41.557v-20.443a18.021 18.021 0 0 0 -18-18h-55.392l28.392-42.611 69.282 28.867a11.969 11.969 0 0 1 7.385 11.077v82.667h16v-82.667a27.923 27.923 0 0 0 -9.851-21.333h6.184a28.032 28.032 0 0 0 28-28zm-289.257 204a11.417 11.417 0 0 1 -11.243-13.369l1.592-9.168a11.4 11.4 0 0 1 11.243-9.463 8 8 0 0 0 5.657-2.343l24-24a8 8 0 0 0 2.343-5.657v-8a32.057 32.057 0 0 1 24-30.988v67.675l-35.314 35.313zm68.905-24h121.039l24 24h-169.039zm158.7-34.343 24 24a8 8 0 0 0 5.652 2.343 11.4 11.4 0 0 1 11.248 9.463l1.592 9.168a11.417 11.417 0 0 1 -11.248 13.369h-22.279l-35.313-35.313v-67.675a32.057 32.057 0 0 1 24 30.988v8a8 8 0 0 0 2.343 5.657zm-26.348-75.657v14.667a48.17 48.17 0 0 0 -8-.667 8 8 0 0 0 -8 8v72h-111.665v-72a8 8 0 0 0 -8-8 48.115 48.115 0 0 0 -8.335.725v-14.725a2 2 0 0 1 2-2h140a2 2 0 0 1 2 2zm-91.357-250h38.714l15.117 26.453a243.472 243.472 0 0 0 -68.948 0zm-31.173 64.411a8 8 0 0 0 -5.47 7.589v8.315c-17.416-5.607-24-12.53-24-16.315 0-3.809 6.341-9.958 20.508-15.109 15.767-5.733 36.892-8.891 59.492-8.891s43.725 3.158 59.492 8.891c14.167 5.151 20.508 11.3 20.508 15.109 0 3.785-6.584 10.708-24 16.315v-8.315a8 8 0 0 0 -5.47-7.589l-16.378-5.459a108.661 108.661 0 0 0 -68.3 0zm10.53 60.889v-47.53l10.907-3.636a92.57 92.57 0 0 1 58.186 0l10.907 3.632v47.534a11.978 11.978 0 0 1 -5.343 9.985l-28 18.666a11.971 11.971 0 0 1 -13.314 0l-28-18.667a11.978 11.978 0 0 1 -5.343-9.984zm39.665 100.276-30.6-45.929 9.382-16.4 6.021 4.014a27.928 27.928 0 0 0 31.064 0l5.536-3.69 9.2 16.073z" fill="#000000" data-original="#000000" class=""></path><path d="m104 48v12.253a47.97 47.97 0 0 0 -50.847-8.405 8 8 0 0 0 -4.8 6.407 48.68 48.68 0 0 0 -.353 5.745 48.046 48.046 0 0 0 56 47.337v20.916a47.97 47.97 0 0 0 -50.847-8.4 8 8 0 0 0 -4.8 6.407 48.68 48.68 0 0 0 -.353 5.74 48.046 48.046 0 0 0 56 47.337v20.916a47.97 47.97 0 0 0 -50.847-8.4 8 8 0 0 0 -4.8 6.407 48.68 48.68 0 0 0 -.353 5.74 48.046 48.046 0 0 0 56 47.337v16.663h16v-16.663a47.956 47.956 0 0 0 55.647-53.085 8 8 0 0 0 -4.8-6.4 47.972 47.972 0 0 0 -50.848 8.4v-20.915a47.956 47.956 0 0 0 55.647-53.085 8 8 0 0 0 -4.8-6.4 47.972 47.972 0 0 0 -50.848 8.4v-20.915a47.956 47.956 0 0 0 55.647-53.085 8 8 0 0 0 -4.8-6.4 47.972 47.972 0 0 0 -50.845 8.401v-12.253zm-8 48a32.039 32.039 0 0 1 -31.984-31 32.032 32.032 0 0 1 39.968 30 31.943 31.943 0 0 1 -7.984 1zm0 72a32.039 32.039 0 0 1 -31.984-31 32.032 32.032 0 0 1 39.968 30 31.943 31.943 0 0 1 -7.984 1zm0 72a32.039 32.039 0 0 1 -31.984-31 32.032 32.032 0 0 1 39.968 30 31.943 31.943 0 0 1 -7.984 1zm56-32a31.943 31.943 0 0 1 7.984 1 32.032 32.032 0 0 1 -39.968 30 32.039 32.039 0 0 1 31.984-31zm0-72a31.943 31.943 0 0 1 7.984 1 32.032 32.032 0 0 1 -39.968 30 32.039 32.039 0 0 1 31.984-31zm0-72a31.943 31.943 0 0 1 7.984 1 32.032 32.032 0 0 1 -39.968 30 32.039 32.039 0 0 1 31.984-31z" fill="#000000" data-original="#000000" class=""></path><path d="m309.872 410 10.588 12a24 24 0 0 1 31.745 0l10.588-12a40 40 0 0 0 -52.921 0z" fill="#000000" data-original="#000000" class=""></path><path d="m299.294 398a56 56 0 0 1 74.078 0l10.587-12a72 72 0 0 0 -95.253 0z" fill="#000000" data-original="#000000" class=""></path><path d="m168 255.78h88.004v16h-88.004z" fill="#000000" data-original="#000000" class=""></path><path d="m191.966 169.555h16v12.997h-16z" fill="#000000" data-original="#000000" class=""></path><path d="m224 192h16v12.997h-16z" fill="#000000" data-original="#000000" class=""></path><path d="m192 208h16v12.997h-16z" fill="#000000" data-original="#000000" class=""></path><path d="m464 80v-24a8 8 0 0 0 -8-8h-24v16h16v16z" fill="#000000" data-original="#000000" class=""></path><path d="m432 272h24a8 8 0 0 0 8-8v-24h-16v16h-16z" fill="#000000" data-original="#000000" class=""></path><path d="m256 64a40.071 40.071 0 0 1 29.817 13.335l11.922-10.67a56 56 0 1 0 -69.745 85.835l8.011-13.85a40.006 40.006 0 0 1 19.995-74.65z" fill="#000000" data-original="#000000" class=""></path></g></g></g></svg>